<svg width="28" height="30" viewBox="0 0 28 30" xmlns="http://www.w3.org/2000/svg"><g fill="none" fill-rule="evenodd"><path fill="none" d="M-2 0h30v30H-2z"/><g fill="#3E5171"><path d="M23.779 5.172l-2.242 2.466-.832-.744 2.242-2.467a2.75 2.75 0 01-.547-1.65C22.4 1.245 23.654 0 25.2 0 26.746 0 28 1.244 28 2.778s-1.254 2.778-2.8 2.778c-.519 0-1.005-.14-1.421-.384zm-19.44 19.73l2.317-2.549.831.744-2.353 2.59c.294.44.466.968.466 1.535C5.6 28.756 4.346 30 2.8 30 1.254 30 0 28.756 0 27.222s1.254-2.778 2.8-2.778c.569 0 1.098.169 1.54.458z" opacity=".7"/><path d="M13 25C6.925 25 2 20.075 2 14S6.925 3 13 3s11 4.925 11 11-4.925 11-11 11zm5.347-10.557L10.531 7.53a.48.48 0 00-.344-.129.523.523 0 00-.183.035c-.203.077-.304.21-.304.4v10.153c0 .19.1.322.304.4a.505.505 0 00.527-.094l2.38-2.11 1.458 3.052a.473.473 0 00.267.23.532.532 0 00.374 0l1.352-.507a.469.469 0 00.26-.236.376.376 0 000-.33l-1.535-3.215h2.917c.215 0 .364-.089.45-.269.086-.175.05-.331-.107-.466z"/></g></g></svg>