<svg width="30" height="30" viewBox="0 0 30 30" fill="none" xmlns="http://www.w3.org/2000/svg"><path d="M1 28.888h28v-4H1v4z" fill="url(#paint0_linear)"/><path d="M8 6.888c-4.416 0-8 3.583-8 8 0 4.416 3.584 8 8 8s8-3.584 8-8c0-4.417-3.584-8-8-8zm2.063 11.077a2.798 2.798 0 01-1.52.579v.977h-1.05v-1.014c-.651-.072-1.122-.253-1.484-.579-.507-.398-.688-.869-.796-1.412l1.592-.398c0 .507.543 1.123 1.34 1.123.47 0 1.05-.218 1.05-.87 0-.506-.543-.868-1.123-1.013-.615-.145-1.81-.543-2.172-.905-.325-.362-.434-.905-.434-1.484 0-.507.217-1.05.615-1.375.362-.326.797-.507 1.412-.58v-.832h1.05v.832c.58.073 1.05.254 1.412.543.47.398.688.905.688 1.195l-1.593.362c0-.398-.58-.869-.978-.869-.506 0-.94.145-.94.796 0 .471.361.616.977.833 1.05.326 1.81.76 2.171 1.122.363.362.543.833.543 1.412 0 .724-.253 1.194-.76 1.556z" fill="url(#paint1_linear)"/><path fill-rule="evenodd" clip-rule="evenodd" d="M28.5 11.888h1.06a.2.2 0 00.15-.332L26.65 8.06a.2.2 0 00-.3 0l-3.06 3.496a.2.2 0 00.15.332h1.06v10.7a.3.3 0 00.3.3h3.4a.3.3 0 00.3-.3v-10.7z" fill="url(#paint2_linear)"/><path fill-rule="evenodd" clip-rule="evenodd" d="M22 6.888h2.573a.2.2 0 00.154-.328l-4.573-5.488a.2.2 0 00-.308 0L15.273 6.56a.2.2 0 00.154.328H18v15.7a.3.3 0 00.3.3h3.4a.3.3 0 00.3-.3v-15.7z" fill="url(#paint3_linear)"/><defs><linearGradient id="paint0_linear" x1="4" y1="28.888" x2="5.367" y2="22.421" gradientUnits="userSpaceOnUse"><stop stop-color="#0CF0A9"/><stop offset="1" stop-color="#04B0B6"/></linearGradient><linearGradient id="paint1_linear" x1="11.318" y1="6.754" x2=".236" y2="22.916" gradientUnits="userSpaceOnUse"><stop stop-color="#0CF0A9"/><stop offset="1" stop-color="#04B0B6"/></linearGradient><linearGradient id="paint2_linear" x1="27.852" y1="7.991" x2="17.82" y2="14.395" gradientUnits="userSpaceOnUse"><stop stop-color="#0CF0A9"/><stop offset="1" stop-color="#04B0B6"/></linearGradient><linearGradient id="paint3_linear" x1="21.98" y1="1" x2="7.26" y2="10.363" gradientUnits="userSpaceOnUse"><stop stop-color="#0CF0A9"/><stop offset="1" stop-color="#04B0B6"/></linearGradient></defs></svg>