<?xml version="1.0" encoding="UTF-8"?>
<svg width="60px" height="60px" viewBox="0 0 60 60" version="1.1" xmlns="http://www.w3.org/2000/svg" xmlns:xlink="http://www.w3.org/1999/xlink">
    <!-- Generator: Sketch 56.3 (81716) - https://sketch.com -->
    <title>Group 4</title>
    <desc>Created with Sketch.</desc>
    <g id="页面1" stroke="none" stroke-width="1" fill="none" fill-rule="evenodd">
        <g id="短信/状态面板合集" transform="translate(-610.000000, -542.000000)">
            <g id="编组-3" transform="translate(528.000000, 542.000000)">
                <g id="Group-4" transform="translate(82.000000, 0.000000)">
                    <circle id="Oval-8" fill="#F4F8FD" cx="30" cy="30" r="30"></circle>
                    <g id="folder" transform="translate(15.189873, 15.189873)" fill-rule="nonzero">
                        <path d="M21.6168009,26.3291139 L4.1637898,26.3291139 C3.68185398,26.3291139 3.29113924,25.9379052 3.29113924,25.4553601 L3.29113924,0.873753781 C3.29113924,0.391208693 3.68185398,0 4.1637898,0 L21.6168009,0 C22.0987367,0 22.4894515,0.391208693 22.4894515,0.873753781 L22.4894515,25.4553601 C22.4894515,25.9379052 22.0987367,26.3291139 21.6168009,26.3291139 Z" id="Shape" fill="#D6E4EB"></path>
                        <path d="M21.6417338,0 L13.164557,0 L13.164557,26.3291139 L21.6417338,26.3291139 C22.1099,26.3291139 22.4894515,25.9379052 22.4894515,25.4553601 L22.4894515,0.873753781 C22.4894515,0.391092192 22.1099,0 21.6417338,0 Z" id="Shape" fill="#B7C9D2"></path>
                        <path d="M26.3291139,10.2966684 L26.3291139,28.744562 C26.3291139,29.2350074 25.9452059,29.6202532 25.4564634,29.6202532 L8.00345224,29.6202532 C7.51470976,29.6202532 7.13080169,29.2350074 7.13080169,28.744562 L7.13080169,4.16683039 C7.13080169,3.67638497 7.51470976,3.29113924 8.00345224,3.29113924 L19.3479095,3.29113924 L26.3291139,10.2966684 Z" id="Shape" fill="#F6F6F7"></path>
                        <path d="M14.8101266,3.29113924 L14.8101266,29.6202532 L25.443038,29.6202532 C25.9392996,29.6202532 26.3291139,29.2350074 26.3291139,28.744562 L26.3291139,10.2966684 L19.2405063,3.29113924 L14.8101266,3.29113924 Z" id="Shape" fill="#D6E4EB"></path>
                        <path d="M26.3291139,8.47873805 L26.3291139,10.4219409 L20.0896624,10.4219409 C19.5904469,10.4219409 19.1983122,10.0298063 19.1983122,9.53059072 L19.1983122,3.29113924 L21.1415151,3.29113924 C21.8545359,3.29113924 22.514135,3.57631188 23.0311776,4.07552743 L25.5447257,6.5890756 C26.0439413,7.10611814 26.3291139,7.7657173 26.3291139,8.47873805 Z" id="Shape" fill="#ADD2FA"></path>
                        <path d="M16.6613924,12.0675105 L11.3132911,12.0675105 C10.8206122,12.0675105 10.4219409,11.6995063 10.4219409,11.2447257 C10.4219409,10.7899451 10.8206122,10.4219409 11.3132911,10.4219409 L16.6613924,10.4219409 C17.1540714,10.4219409 17.5527426,10.7899451 17.5527426,11.2447257 C17.5527426,11.6995063 17.1540714,12.0675105 16.6613924,12.0675105 Z" id="Shape" fill="#68D9B1"></path>
                        <path d="M17.0323488,10.4219409 L14.8101266,10.4219409 L14.8101266,12.0675105 L17.0323488,12.0675105 C17.4365982,12.0675105 17.7637131,11.6995063 17.7637131,11.2447257 C17.7637131,10.7899451 17.4365982,10.4219409 17.0323488,10.4219409 Z" id="Shape" fill="#2DCA93"></path>
                        <path d="M19.9753868,15.3586498 L11.290436,15.3586498 C10.8103898,15.3586498 10.4219409,14.9906456 10.4219409,14.535865 C10.4219409,14.0810844 10.8103898,13.7130802 11.290436,13.7130802 L19.9753868,13.7130802 C20.455433,13.7130802 20.8438819,14.0810844 20.8438819,14.535865 C20.8438819,14.9906456 20.455433,15.3586498 19.9753868,15.3586498 Z" id="Shape" fill="#68D9B1"></path>
                        <path d="M19.9819168,13.7130802 L14.8101266,13.7130802 L14.8101266,15.3586498 L19.9819168,15.3586498 C20.4583536,15.3586498 20.8438819,14.9906456 20.8438819,14.535865 C20.8438819,14.0810844 20.4583536,13.7130802 19.9819168,13.7130802 Z" id="Shape" fill="#2DCA93"></path>
                        <path d="M16.6613924,8.77637131 L11.3132911,8.77637131 C10.8206122,8.77637131 10.4219409,8.40836709 10.4219409,7.9535865 C10.4219409,7.49880591 10.8206122,7.13080169 11.3132911,7.13080169 L16.6613924,7.13080169 C17.1540714,7.13080169 17.5527426,7.49880591 17.5527426,7.9535865 C17.5527426,8.40836709 17.1540714,8.77637131 16.6613924,8.77637131 Z" id="Shape" fill="#68D9B1"></path>
                        <path d="M17.0323488,7.13080169 L14.8101266,7.13080169 L14.8101266,8.77637131 L17.0323488,8.77637131 C17.4365982,8.77637131 17.7637131,8.40836709 17.7637131,7.9535865 C17.7637131,7.49880591 17.4365982,7.13080169 17.0323488,7.13080169 Z" id="Shape" fill="#2DCA93"></path>
                        <path d="M27.0169106,29.6202532 L2.60334256,29.6202532 C1.16780162,29.6202532 0,28.4353742 0,26.9788407 L0,14.593551 C0,14.1068854 0.38812945,13.7130802 0.867780854,13.7130802 L6.13231804,13.7130802 C6.46114913,13.7130802 6.76111205,13.9013835 6.90857694,14.1997457 L8.40428402,17.2349635 L21.2159113,17.2349635 L22.7116184,14.1997457 C22.8591411,13.9013835 23.159104,13.7130802 23.4879351,13.7130802 L28.7524723,13.7130802 C29.2321237,13.7130802 29.6202532,14.1068854 29.6202532,14.593551 L29.6202532,26.9788407 C29.6202532,28.4353742 28.4524515,29.6202532 27.0169106,29.6202532 Z" id="Shape" fill="#84B6ED"></path>
                        <path d="M28.7524723,13.7130802 L23.4879351,13.7130802 C23.159104,13.7130802 22.8591411,13.9013835 22.7116762,14.1997457 L21.2159691,17.2349635 L14.8101266,17.2349635 L14.8101266,29.6202532 L27.0169106,29.6202532 C28.4524515,29.6202532 29.6202532,28.4353742 29.6202532,26.9788407 L29.6202532,14.593551 C29.6202532,14.1068854 29.2321237,13.7130802 28.7524723,13.7130802 Z" id="Shape" fill="#559FF0"></path>
                        <path d="M18.2579867,26.3291139 L11.3622664,26.3291139 C9.93634639,26.3291139 8.77637131,25.0988373 8.77637131,23.5864979 C8.77637131,22.0741585 9.93634639,20.8438819 11.3622664,20.8438819 L18.2579867,20.8438819 C19.6839068,20.8438819 20.8438819,22.0741585 20.8438819,23.5864979 C20.8438819,25.0988373 19.6839068,26.3291139 18.2579867,26.3291139 Z" id="Shape" fill="#68D9B1"></path>
                        <path d="M18.2579867,20.8438819 L14.8101266,20.8438819 L14.8101266,26.3291139 L18.2579867,26.3291139 C19.6839068,26.3291139 20.8438819,25.0988373 20.8438819,23.5864979 C20.8438819,22.0741585 19.6839068,20.8438819 18.2579867,20.8438819 Z" id="Shape" fill="#2DCA93"></path>
                    </g>
                </g>
            </g>
        </g>
    </g>
</svg>