<svg width="57" height="57" viewBox="0 0 57 57" xmlns="http://www.w3.org/2000/svg"><g fill="none" fill-rule="evenodd"><circle fill="#FDFDFD" cx="28.5" cy="31.5" r="24.5"/><path d="M57 28.473c.026 14.368-10.666 26.505-24.934 28.301C17.799 58.571 4.426 49.466.883 35.54-2.66 21.615 4.735 7.234 18.13 2.004a27.847 27.847 0 0120.746 0A28.474 28.474 0 0157 28.474m-39.452-5.969a12.526 12.526 0 006.03 10.98c1.5.857 3.196 1.313 4.924 1.32a9.855 9.855 0 004.754-1.24 12.526 12.526 0 006.2-11.06c0-6.777-4.912-12.255-10.954-12.255-6.041 0-10.954 5.524-10.954 12.3m11.068 32.552a26.535 26.535 0 0020.621-9.807c-.581-4.726-5.186-8.747-11.695-10.751-5.164 4.783-13.166 4.708-18.239-.171-6.35 1.81-10.989 5.49-12.083 9.92a26.545 26.545 0 0021.396 10.809" fill="#C0CCDA" fill-rule="nonzero"/></g></svg>